<svg xmlns="http://www.w3.org/2000/svg" baseProfile="full" width="946.667" height="946.667" viewBox="0 0 946.67 946.67"><path fill="#666" d="M741.333 0h-536c-27.868 0-50.666 22.8-50.666 50.667v844c0 27.866 22.798 50.666 50.666 50.666h536c27.867 0 50.667-22.8 50.667-50.666v-844C792 22.8 769.2 0 741.333 0z"/><path fill="#333" d="M741.333 5.333h-536C180.335 5.333 160 25.67 160 50.667v844C160 919.664 180.335 940 205.333 940h536c24.998 0 45.334-20.336 45.334-45.333v-844c0-24.998-20.336-45.334-45.334-45.334z"/><path fill="#FFF" d="M473.333 44.445c3.68 0 6.666 2.985 6.666 6.666 0 3.683-2.987 6.668-6.667 6.668-3.682 0-6.667-2.985-6.667-6.667 0-3.68 2.985-6.665 6.667-6.665zM473.333 926.548c-13.743 0-24.89-11.147-24.89-24.89 0-13.742 11.147-24.89 24.89-24.89 13.742 0 24.89 11.148 24.89 24.89 0 13.743-11.148 24.89-24.89 24.89zM758.667 850.667c0 1.466-1.2 2.666-2.667 2.666H190.667c-1.468 0-2.667-1.2-2.667-2.666V96c0-1.467 1.2-2.667 2.667-2.667H756c1.467 0 2.667 1.2 2.667 2.667v754.667z"/><path fill="#333" d="M473.333 923.88c-12.254 0-22.223-9.968-22.223-22.22 0-12.255 9.97-22.224 22.223-22.224 12.253 0 22.222 9.97 22.222 22.223 0 12.252-9.97 22.22-22.222 22.22z"/></svg>